<svg width="512" height="512" viewBox="0 0 512 512" xmlns="http://www.w3.org/2000/svg" role="img" aria-labelledby="title desc">
  <title id="title">Dashboard Analytics</title>
  <desc id="desc">Ícone de dashboard com cards de KPI, gráfico de barras e linha ascendente.</desc>
  <defs>
    <linearGradient id="screen" x1="80" y1="54" x2="430" y2="458" gradientUnits="userSpaceOnUse">
      <stop stop-color="#111827"/>
      <stop offset="1" stop-color="#020617"/>
    </linearGradient>
    <linearGradient id="line" x1="126" y1="344" x2="394" y2="202" gradientUnits="userSpaceOnUse">
      <stop stop-color="#22C55E"/>
      <stop offset="0.52" stop-color="#38BDF8"/>
      <stop offset="1" stop-color="#818CF8"/>
    </linearGradient>
  </defs>

  <rect width="512" height="512" rx="104" fill="#0F172A"/>
  <rect x="52" y="62" width="408" height="388" rx="62" fill="url(#screen)" stroke="#334155" stroke-width="18"/>
  <rect x="88" y="100" width="336" height="42" rx="18" fill="#1E293B"/>
  <circle cx="118" cy="121" r="8" fill="#22C55E"/>
  <circle cx="146" cy="121" r="8" fill="#38BDF8"/>
  <circle cx="174" cy="121" r="8" fill="#818CF8"/>

  <rect x="88" y="170" width="86" height="70" rx="20" fill="#13233F" stroke="#334155" stroke-width="8"/>
  <rect x="204" y="170" width="86" height="70" rx="20" fill="#13233F" stroke="#334155" stroke-width="8"/>
  <rect x="320" y="170" width="104" height="70" rx="20" fill="#13233F" stroke="#334155" stroke-width="8"/>
  <path d="M112 207H148" stroke="#22C55E" stroke-width="16" stroke-linecap="round"/>
  <path d="M228 207H264" stroke="#38BDF8" stroke-width="16" stroke-linecap="round"/>
  <path d="M344 207H398" stroke="#818CF8" stroke-width="16" stroke-linecap="round"/>

  <rect x="88" y="276" width="336" height="126" rx="28" fill="#0B1220" stroke="#334155" stroke-width="8"/>
  <path d="M118 370H394" stroke="#334155" stroke-width="14" stroke-linecap="round"/>
  <rect x="132" y="326" width="34" height="44" rx="12" fill="#22C55E"/>
  <rect x="196" y="298" width="34" height="72" rx="12" fill="#38BDF8"/>
  <rect x="260" y="318" width="34" height="52" rx="12" fill="#818CF8"/>
  <rect x="324" y="270" width="34" height="100" rx="12" fill="#6366F1"/>
  <path d="M126 346L206 310L276 326L386 246" fill="none" stroke="url(#line)" stroke-width="20" stroke-linecap="round" stroke-linejoin="round"/>
  <circle cx="386" cy="246" r="18" fill="#F8FAFC"/>
</svg>
